<?xml version="1.0" standalone="no"?>
<!DOCTYPE svg PUBLIC "-//W3C//DTD SVG 20010904//EN"
 "http://www.w3.org/TR/2001/REC-SVG-20010904/DTD/svg10.dtd">
<svg version="1.0" xmlns="http://www.w3.org/2000/svg"
 width="71.000000pt" height="70.000000pt" viewBox="0 0 71.000000 70.000000"
 preserveAspectRatio="xMidYMid meet">

<g transform="translate(0.000000,70.000000) scale(0.100000,-0.100000)"
fill="#4376FC" stroke="none">
<path d="M218 592 l-137 -77 0 -165 0 -165 131 -74 c72 -41 137 -74 143 -74 6
0 70 33 143 74 l131 74 1 165 0 165 -68 37 c-37 21 -99 56 -137 77 l-71 40
-136 -77z m295 -85 l57 -32 0 -125 0 -125 -106 -60 c-58 -33 -108 -60 -111
-59 -3 0 -52 27 -109 60 l-103 59 0 125 0 125 107 61 107 62 50 -29 c27 -16
76 -44 108 -62z"/>
<path d="M278 472 l-68 -37 0 -85 0 -85 73 -39 73 -39 62 34 c34 18 62 37 62
41 0 4 -14 15 -31 23 -28 15 -33 15 -54 1 -31 -20 -46 -20 -84 2 -27 15 -31
22 -31 62 0 40 4 47 31 63 38 21 53 21 84 1 21 -14 26 -14 54 1 17 8 31 19 31
23 0 8 -113 72 -126 72 -5 0 -39 -17 -76 -38z"/>
</g>
</svg>
