<?xml version="1.0" encoding="windows-1252"?>
<!-- Generator: Adobe Illustrator 23.0.1, SVG Export Plug-In . SVG Version: 6.00 Build 0)  -->
<svg version="1.1" id="Layer_1" xmlns="http://www.w3.org/2000/svg" xmlns:xlink="http://www.w3.org/1999/xlink" x="0px" y="0px" viewBox="0 0 555.3 140.3" style="enable-background:new 0 0 555.3 140.3;" xml:space="preserve">
<style type="text/css">
	.Arched_x0020_Green{fill:url(#SVGID_1_);stroke:#FFFFFF;stroke-width:0.25;stroke-miterlimit:1;}
	.st0{fill:#003976;stroke:#003976;stroke-width:0.2;}
	.st1{fill:#B4975A;}
</style>
<linearGradient id="SVGID_1_" gradientUnits="userSpaceOnUse" x1="-20.0293" y1="521.928" x2="-19.3222" y2="521.2209">
	<stop offset="0" style="stop-color:#20AC4B"/>
	<stop offset="0.9831" style="stop-color:#19361A"/>
</linearGradient>
<path d="M181.5,75.8c1-0.6,1-0.7,1.6-1.1c1.6-1.4,2.1-3.2,2.2-4c0-0.4,0-0.9-0.1-1.7c-0.6,0.6-1.2,1.1-2,1.1c-0.4,0-0.8-0.1-1.1-0.4  c-0.8-0.5-1.3-1.5-1.3-2.6c0-0.3,0-0.7,0.2-1.3c0.3-0.6,1-1.9,3-1.9c0.3,0,1.1,0,1.8,0.5c1.3,0.8,1.9,2.6,1.9,4.2  c0,2.5-1.3,5-3.1,6.5c-0.5,0.4-1.3,0.9-2.5,1.6L181.5,75.8z"/>
<path d="M206,74.7h1.2v6.4h-1.6c-0.2-0.7-0.4-1.4-0.7-2.1c-1.2-2.7-3.3-3-4.5-3c-0.5,0-2,0-3,1.3c-0.4,0.5-0.5,1.1-0.5,1.7  c0,0.3,0,0.9,0.4,1.5c0.9,1.5,3.1,2,4.6,2.5c0.2,0,1.6,0.5,2.6,1c1,0.5,3.8,2.2,3.8,5.9c0,0.7-0.1,2.1-1.1,3.6  c-1,1.5-2.8,3.1-6.8,3.1c-3,0-4.7-1-5.8-1.6l-0.5,1.2h-1.4l0.2-7.8h1.6c0.2,0.9,0.5,4.1,3.3,5.6c0.9,0.5,1.8,0.7,2.8,0.7  c3,0,3.7-2.3,3.7-3.4c0-0.4,0-1.2-0.6-2c-0.9-1.4-2.6-1.8-4.2-2.4c-1.3-0.4-2.5-0.8-3.6-1.5c-0.9-0.6-2.8-1.9-2.8-5  c0-0.5,0.1-1.8,0.8-3c1.8-3.1,5.8-3.3,6.8-3.3c2,0,3.2,0.5,4.9,1.3L206,74.7z"/>
<path d="M227.3,85.4H213v-3.3h14.4V85.4z"/>
<path d="M235.7,67.9c-0.2-1.3-0.4-1.5-1.7-1.7h-2.4v-1.8h13v1.8h-2.2c-1.4,0-1.6,0.2-1.9,1.6v10.6h13.9V67.8  c-0.2-1.3-0.4-1.4-1.6-1.6h-2.5v-1.8h13v1.8h-2.1c-0.8,0-1.1,0.2-1.4,0.4c-0.5,0.4-0.5,0.8-0.6,1.4v25c0,0.2,0.1,0.6,0.5,0.9  c0.6,0.5,1.8,0.5,3.6,0.5v1.7h-13.1v-1.8h1.8c0.5,0,1,0,1.4-0.1c0.9-0.3,0.9-1,1-1.9V80.3h-14v12.3c0.3,1.4,0.6,1.5,2.1,1.7h2.1v1.8  h-13.1v-1.8h2.5c1.2-0.1,1.4-0.3,1.8-1.4V67.9z"/>
<path d="M272.2,84.3c0,0.7,0,1.4,0.1,2.1c0.1,0.9,0.4,4.8,3.3,6.8c1.5,1,2.9,1.1,3.6,1.1c0.5,0,1.3,0,2.4-0.5  c2.6-1.1,3.3-3.9,3.5-4.6h1.9c-0.5,1.8-0.9,2.6-1.4,3.4c-2.4,3.9-6.5,4.1-8,4.1c-4.2,0-6.6-2-7.6-3.2c-2.3-2.7-2.4-7-2.4-7.9  c0-0.9,0.1-4.1,1.7-6.8c0.4-0.6,1-1.6,2.5-2.6c2.5-1.8,5.2-1.8,6.3-1.8c0.4,0,1.8,0,3.1,0.5c2.3,0.8,4,2.7,4.7,4.9  c0.4,1.3,0.5,3.1,0.6,4.6H272.2z M282.3,82.6c0-1.8-0.1-3.6-1.1-5.2c-0.1-0.2-0.4-0.6-0.9-1c-0.4-0.3-1.2-0.7-2.4-0.7  c-1.3,0-2.2,0.5-2.7,0.8c-1.7,1-2.3,2.5-3.1,6.1H282.3z"/>
<path d="M303.4,94.4v1.7h-12.2v-1.7h1.9c1.3-0.2,1.4-0.5,1.6-1.7V78.5c-0.1-1.2-0.2-1.3-1.3-1.6h-2.1v-1.7c1.3,0,2.7,0,4-0.1  c1.1-0.1,2.3-0.2,3.4-0.4v4.2c0.9-1.7,1.8-3.2,3.6-4c0.3-0.1,1-0.5,1.9-0.5c0.3,0,1.1,0,1.8,0.5c0.8,0.4,1.6,1.2,1.6,3.1  c0,2.3-1.5,3-2.4,3c-1,0-2.2-0.8-2.2-2c0-0.6,0.5-1.2,0.5-1.6c0-0.4-0.6-0.6-1.1-0.6c-0.4,0-0.7,0.1-1.1,0.4c-0.6,0.4-1.5,1.3-2,2.9  c-0.7,2-0.6,4.2-0.6,8.6c0,1.2,0,2.4,0,3.6c0,0.8,0,1.5,0.5,2c0.5,0.4,1,0.4,1.6,0.3H303.4z"/>
<path d="M314.3,68.7l4-2v8.4h4.7v1.8h-4.7v11.8c0,2.3,0.1,5.6,3.1,5.6c1,0,1.8-0.5,2.7-1l0,1.6l-1.2,0.7c-0.7,0.4-1.9,0.9-3.8,0.9  c-2.8,0-4.1-1.6-4.5-2.6c-0.3-0.8-0.4-1.8-0.4-2.7V76.8h-3.3v-1.8h3.4L314.3,68.7z"/>
<path d="M328.9,80.1c2.4-5.1,7.7-5.8,9.5-5.8c1.2,0,4.7,0.2,7.1,2.9c1,1.2,2.9,3.9,2.9,8.1c0,1.9-0.5,7.3-5.6,10  c-0.8,0.4-2.6,1.2-5,1.2c-2.7,0-5.5-1.1-7.4-3c-1.1-1.2-2.9-4-2.8-8.3C327.7,84.5,327.8,82.3,328.9,80.1z M334,93.3  c0.4,0.6,1.7,1.8,3.9,1.8c1.8,0,3.2-0.9,4.2-2.3c1.8-2.7,1.6-6.4,1.6-7.1c0-0.4,0.2-5.4-1.7-8c-1.3-1.7-3.2-1.9-3.9-1.9  c-0.6,0-2,0.1-3.2,1.2c-2.3,2-2.7,5.9-2.7,8.8C332.2,85.9,332.2,90.9,334,93.3z"/>
<path d="M354.3,93.6c0-1.8,1.1-3.3,3.5-6c-0.6-0.5-1-0.9-1.3-1.1c-1.6-1.6-1.7-3.9-1.7-4.6c0-0.5,0.1-1.8,0.8-3.2  c0.9-1.6,3.2-4.3,7.7-4.3c0.5,0,1,0,1.5,0.1c1.9,0.2,2.7,0.6,4.3,1.8c1-0.9,2.1-1.7,3.6-1.7c1.1,0,2.1,0.5,2.1,1.8  c0,0.2,0,1.1-0.8,1.1c-0.4,0-0.8-0.2-1.1-0.3c-0.5-0.2-0.8-0.2-1.1-0.2c-0.7,0-1.5,0.2-1.7,0.2c0.7,0.8,1.7,1.9,1.7,4.3  c0,1.1-0.3,3.7-2.7,5.6c-2.3,1.8-5,1.8-5.9,1.8c-2.1,0-3.1-0.5-4-0.8c-0.9,0.9-1.9,1.9-1.9,3.2c0,0.3,0,0.6,0.2,0.9  c0.4,0.6,1.5,1.1,3.3,1.1c0.9,0,1.8-0.1,2.6-0.1c1-0.1,1.9-0.1,2.9-0.2c0.6,0,1.3,0,2,0c0.3,0,1.8,0,3,0.4c1.2,0.4,4,1.6,4,5.3  c0,1.5-0.4,4.4-3.5,6.8c-3.4,2.7-7.3,2.7-8.8,2.7c-3.2,0-5-0.5-6.3-1.2c-0.8-0.4-4-2-4-5.4c0-0.4,0-1,0.4-1.8  c0.6-1.5,1.8-2.4,3.1-3.4C355,95.7,354.3,95.1,354.3,93.6z M356.5,101c0,1,0.3,1.9,0.9,2.7c0.9,1.2,2.9,2.8,6.5,2.8  c1.4,0,2.4-0.2,2.9-0.4c2.5-0.7,5.2-2.5,5.2-5.3c0-1.8-1.2-2.7-1.8-3.1c-1.6-0.9-5.6-0.7-7.5-0.8c-1.5,0-3-0.1-4.5-0.2  C357.2,98.2,356.5,99.4,356.5,101z M359.5,84.4c0.6,1.8,2.2,3.2,4.1,3.2c0.4,0,1.2,0,2-0.6c0.9-0.7,2.1-2.3,2.1-5  c0-4.3-2.2-6.1-4.2-6.1c-0.4,0-1,0-1.8,0.5c-1.1,0.6-2.3,2.1-2.5,4.9C359,82.8,359.3,83.9,359.5,84.4z"/>
<path d="M384,84.3c0,0.7,0,1.4,0.1,2.1c0.1,0.9,0.4,4.8,3.3,6.8c1.5,1,2.9,1.1,3.6,1.1c0.4,0,1.3,0,2.4-0.5c2.6-1.1,3.3-3.9,3.5-4.6  h1.9c-0.5,1.8-0.9,2.6-1.4,3.4c-2.4,3.9-6.5,4.1-8,4.1c-4.2,0-6.6-2-7.6-3.2c-2.3-2.7-2.4-7-2.4-7.9c0-0.9,0.1-4.1,1.7-6.8  c0.4-0.6,1-1.6,2.5-2.6c2.5-1.8,5.2-1.8,6.3-1.8c0.4,0,1.8,0,3.1,0.5c2.3,0.8,4,2.7,4.7,4.9c0.5,1.3,0.5,3.1,0.6,4.6H384z   M394.1,82.6c0-1.8-0.1-3.6-1.1-5.2c-0.1-0.2-0.4-0.6-0.9-1c-0.4-0.3-1.2-0.7-2.4-0.7c-1.4,0-2.2,0.5-2.7,0.8  c-1.7,1-2.3,2.5-3.1,6.1H394.1z"/>
<path d="M403.3,75.2c1.6,0,3.1,0,4.6-0.2c0.9-0.1,1.8-0.2,2.7-0.3l0,3.4c0.8-0.9,1.6-1.8,2.6-2.4c1.8-1.2,3.7-1.3,4.5-1.3  c2.4,0,4.7,1,5.7,3.2c0.6,1.3,0.6,2.6,0.6,2.9c0.1,1.6,0.1,3.1,0.1,4.7c0,2.3,0,4.7,0,7.1c0,0-0.1,1.6,0.7,2  c0.4,0.2,1.3,0.2,2.5,0.1v1.7H417v-1.7c2.2,0,2.8,0.2,2.9-2.3V82.1c0-1.2-0.1-2.6-0.6-3.6c-0.7-1.3-1.6-1.7-3-1.7c-2,0-4.2,1.2-5,3  c-0.4,0.7-0.4,1.2-0.5,2v10.6c0,0.7,0.1,1.4,0.5,1.7c0.4,0.4,1.3,0.5,2.6,0.4v1.7h-10.6l0-1.7h1.6c0.6,0,0.8,0,1-0.1  c0.9-0.4,0.8-2,0.8-2.1V79c0-1.8-0.6-2.1-1.6-2.1h-1.8V75.2z"/>
<path d="M434,96.2V66.1c0-0.5,0-0.9-0.4-1.3c-0.4-0.4-1.1-0.4-2.3-0.4v-1.7c1.3,0,2.6-0.1,3.9-0.2c1,0,2.1-0.2,3.1-0.3v5.5l0,10.3  c0.4-0.4,0.7-0.9,1.1-1.3c1-1.1,2.6-2.4,6-2.4c0.4,0,2.1,0,3.5,0.7c2.2,1,4.7,4.1,4.7,9.8c0,0.8-0.1,4.5-1.6,7.2  c-0.3,0.5-1,1.7-2.4,2.8c-2.1,1.7-4.4,1.9-5.4,1.9c-0.8,0-2.7-0.1-4.7-1.3c-0.7-0.5-1-0.8-1.7-1.3c-1.1,0.9-1.4,1.2-2.4,2.1H434z   M438.2,88.9c0.1,1.9,0.7,3.8,2.3,4.9c0.5,0.4,1.5,1,3.1,1c0.6,0,2.2-0.1,3.4-1.4c1.3-1.5,2.3-4.5,2.3-9.1c0-0.4,0-4.1-1.4-6.3  c-0.3-0.4-0.7-0.9-1.7-1.3c-0.4-0.2-1-0.5-2-0.5c-1.2,0-2.4,0.5-3.3,1.3c-2.7,2.3-2.7,6.6-2.7,9.8V88.9z"/>
<path d="M460.4,80.1c2.4-5.1,7.6-5.8,9.5-5.8c1.2,0,4.7,0.2,7.1,2.9c1,1.2,2.9,3.9,2.9,8.1c0,1.9-0.5,7.3-5.6,10  c-0.8,0.4-2.6,1.2-5,1.2c-2.7,0-5.5-1.1-7.4-3c-1.1-1.2-2.9-4-2.8-8.3C459.2,84.5,459.3,82.3,460.4,80.1z M465.5,93.3  c0.5,0.6,1.7,1.8,3.9,1.8c1.8,0,3.2-0.9,4.2-2.3c1.8-2.7,1.6-6.4,1.6-7.1c0-0.4,0.2-5.4-1.7-8c-1.3-1.7-3.2-1.9-3.9-1.9  c-0.6,0-2,0.1-3.2,1.2c-2.3,2-2.7,5.9-2.7,8.8C463.7,85.9,463.7,90.9,465.5,93.3z"/>
<path d="M499.1,74.7h1.2v6.4h-1.6c-0.2-0.7-0.4-1.4-0.7-2.1c-1.2-2.7-3.3-3-4.5-3c-0.5,0-2,0-3,1.3c-0.4,0.5-0.5,1.1-0.5,1.7  c0,0.3,0,0.9,0.4,1.5c0.9,1.5,3.1,2,4.6,2.5c0.2,0,1.6,0.5,2.6,1c1,0.5,3.8,2.2,3.8,5.9c0,0.7-0.1,2.1-1.1,3.6  c-1,1.5-2.8,3.1-6.8,3.1c-3,0-4.7-1-5.8-1.6l-0.5,1.2h-1.4l0.2-7.8h1.6c0.2,0.9,0.5,4.1,3.3,5.6c0.9,0.5,1.8,0.7,2.8,0.7  c3,0,3.7-2.3,3.7-3.4c0-0.4,0-1.2-0.6-2c-0.9-1.4-2.6-1.8-4.2-2.4c-1.3-0.4-2.5-0.8-3.6-1.5c-0.9-0.6-2.8-1.9-2.8-5  c0-0.5,0.1-1.8,0.8-3c1.8-3.1,5.8-3.3,6.8-3.3c2,0,3.2,0.5,5,1.3L499.1,74.7z"/>
<path d="M526,89.1c-0.6,2.2-1,3.2-1.6,4c-1.4,2.3-4.2,3.5-7,3.5c-1,0-4.6-0.2-7.1-2.5c-2.9-2.7-3.1-6.8-3.1-8c0-0.5,0-1.4,0.2-2.6  c0.5-2.4,1.5-4.8,3.2-6.4c1-1,3.5-2.7,7.4-2.7c3.5,0,5.6,1.4,6.5,2.6c0.8,1,0.9,2.1,0.9,2.6c0,1.2-0.4,2.2-1.4,2.7  c-0.2,0.1-0.6,0.3-1.2,0.3c-0.2,0-0.8,0-1.3-0.4c-0.9-0.7-0.9-1.9-1-2.3c0.7-0.9,0.9-1.3,0.9-1.8c0-1-0.7-2.3-3-2.2  c-1,0-2.9,0.2-4.5,2.2c-1.1,1.5-1.9,3.6-1.9,7.6c0,1.2,0.1,2.5,0.2,2.8c0.3,2.2,0.9,3.9,2.7,5.2c0.5,0.3,1.8,1.1,3.5,1.1  c1.1,0,3.3-0.3,4.8-2.7c0.5-0.9,0.8-1.9,1.1-2.8H526z"/>
<path d="M550,91.8c0,2.7,0.7,2.7,3.3,2.7v1.7h-10.4v-1.7c2.4,0,2.9-0.1,2.9-2.7V80.5c0-0.3-0.1-0.6-0.2-0.9  c-0.2-0.5-0.5-1.7-1.8-2.4c-0.3-0.1-1-0.5-2-0.5c-2.5,0-4.2,2.3-4.5,2.8c-0.4,0.7-0.5,1.2-0.6,1.9l-0.1,3.2v8.1  c0.2,0.7,0.3,1.2,0.9,1.4c0.4,0.2,1.1,0.2,2.2,0.2v1.8H529v-1.7h1.5c1.5-0.3,1.7-0.5,1.8-2.1V66.8c0-0.5-0.1-1.2-0.3-1.5  c-0.4-0.7-1.3-0.7-3-0.6v-1.7c3.2-0.1,4.4-0.2,7.5-0.7V78c0.2-0.2,0.8-1,1.5-1.7c0.7-0.6,2.6-2.1,5.5-2.1c3.2,0,4.9,1.9,5.6,2.9  c1.1,1.7,1,3.6,1,5.6V91.8z"/>
<path class="st0" d="M85.1,138.1c0,0-9.9,0-16.9-1.5c-6.9-1.5-13.9-3.8-20.3-7.8c-6.4-4-8.8-8.9-8.8-10.1c0,0,3.9-3.4,5.2-4.4  c2.3-1.8,6.4-3.9,6.4-3.9s2.4,3.3,7.3,5.3c4.9,1.9,9.1,3.4,16.6,4.3c7.5,0.9,10.5,0.7,10.5,0.7H85c0,0,3.1,0.2,10.5-0.7  c7.5-0.9,11.7-2.4,16.6-4.3c4.9-1.9,7.3-5.3,7.3-5.3s4.1,2.1,6.4,3.9c1.3,1,5.2,4.4,5.2,4.4c0,1.2-2.5,6.1-8.8,10.1  c-6.4,4-13.4,6.3-20.3,7.8C95,138.1,85.1,138.1,85.1,138.1z"/>
<path class="st0" d="M85.3,101c0,0-8.7,0-14,0.9c-1.7,0.3-9.1,1.3-15.4,3.5c-6.3,2.3-10.9,5.6-12.3,6.7c-1.5,1.1-4.3,3.4-4.3,3.4  c0.8-6.2,11.4-10.8,13.1-11.5c1.7-0.7,13.6-6.1,33-6.1H85c19.5,0,31.3,5.5,33,6.1c1.7,0.7,12.3,5.3,13.1,11.5c0,0-2.9-2.3-4.3-3.4  c-1.5-1.1-6.1-4.4-12.3-6.7c-6.3-2.3-13.8-3.3-15.4-3.5c-5.4-0.9-14-0.9-14-0.9H85.3z"/>
<polygon class="st1" points="85,28.9 78.2,16.6 84.9,4.2 84.9,4.2 91.7,16.6 85.1,28.9 "/>
<polygon class="st1" points="46.2,34.6 36.4,24.5 39.6,10.8 39.6,10.8 49.4,20.9 46.3,34.6 "/>
<polygon class="st1" points="123.9,34.6 133.7,24.5 130.6,10.8 130.6,10.8 120.8,20.9 123.8,34.6 "/>
<path class="st0" d="M84.9,81c-1.7,0-3.6,0.2-5.6,0.5c1.3-1,4.2-3.3,4.2-3.3l-1.2-10.1c0,0-3-0.1-5-0.2c-1.9-0.1-3.4-1.1-4.5-3.4  c-1.1-2.3-0.7-5.3,0.8-7.2c1.5-1.9,3.1-1.9,3.1-1.9s-0.9-0.5-1.5-2c-0.7-2-0.5-3.9,1.3-5.9c1.8-1.9,4.7-0.6,4.7-0.6  c-0.1-0.5-0.5-3.3,0.8-5.1c0.6-0.8,1.9-1.6,2.7-1.6l0.2,0c0.8,0,2.1,0.8,2.7,1.6c1.4,1.8,1,4.6,0.8,5.1c0,0,3-1.4,4.7,0.6  c1.8,1.9,2,3.8,1.3,5.9c-0.5,1.5-1.5,2-1.5,2s1.6,0,3.1,1.9c1.5,1.9,1.9,4.9,0.8,7.2c-1.1,2.3-2.6,3.3-4.5,3.4c-1.9,0.1-5,0.2-5,0.2  l-1.2,10.1c0,0,2.9,2.3,4.2,3.3c-2-0.3-3.8-0.5-5.6-0.5L84.9,81z M85.1,67.8l2.6,0l5.5-6.7l-8,4.1H85l-8-4.1l5.5,6.7L85.1,67.8  L85.1,67.8z"/>
<path class="st0" d="M150.8,62.7c0,0-5.9,11.9-8.6,18.9c0,0-2.8-4-5.2-5.5c0,0,3,6.2,2.8,7.8l1.3,0.7c0,0-2.3,5.7-4.1,11.9  c0,0-0.5-1.5-4.4-3.2l4.7-0.7l2.4-8.6c0,0-3.6-2.4-4.4-3c-0.7-0.5-2.4-1.6-2.7-4.2c-0.3-2.6,0.5-4.4,2.2-5.2  c1.6-0.8,3.4-0.3,4.1,0.1c0,0-0.8-1.6-0.5-3.5c0.4-1.9,1.5-2.5,2.2-2.9c0.7-0.3,2-0.7,3.6,0c1,0.4,1.4,1.2,1.4,1.2s0.4-0.5,0.5-0.8  c0.1-0.7,1.1-2.1,2-2.6C149.2,62.7,150,62.5,150.8,62.7z"/>
<path class="st1" d="M169.2,31.5c0,0-8.2,11.3-12.6,19.3l0.8-12.6L169.2,31.5z"/>
<path class="st0" d="M19.3,62.7c0,0,5.9,11.9,8.6,18.9c0,0,2.8-4,5.2-5.5c0,0-3,6.2-2.8,7.8L29,84.6c0,0,2.3,5.7,4.1,11.9  c0,0,0.5-1.5,4.4-3.2l-4.7-0.7l-2.4-8.6c0,0,3.6-2.4,4.4-3c0.7-0.5,2.4-1.6,2.7-4.2c0.3-2.6-0.5-4.4-2.2-5.2  c-1.6-0.8-3.4-0.3-4.1,0.1c0,0,0.8-1.6,0.5-3.5c-0.4-1.9-1.5-2.5-2.2-2.9c-0.7-0.3-2-0.7-3.6,0c-1,0.4-1.4,1.2-1.4,1.2  s-0.4-0.5-0.5-0.8c-0.1-0.7-1.1-2.1-2-2.6C21,62.7,20.2,62.5,19.3,62.7z"/>
<path class="st1" d="M2.2,32.2c0,0,8.2,11.3,12.6,19.3L14,39L2.2,32.2z"/>
<path class="st0" d="M58.4,83.6c-1.7,0.4-3.5,1.1-5.3,1.9c1-1.3,3.2-4.3,3.2-4.3l-3.7-9.4c0,0-3,0.7-4.8,1.1  c-1.9,0.4-3.6-0.2-5.2-2.1c-1.7-2-2-4.9-1.1-7.2c1-2.3,2.5-2.6,2.5-2.6s-1-0.2-1.9-1.5c-1.2-1.8-1.5-3.7-0.3-6  c1.2-2.3,4.4-1.8,4.4-1.8c-0.3-0.5-1.3-3-0.5-5.1c0.4-0.9,1.4-2,2.2-2.3l0.2,0c0.8-0.2,2.3,0.3,3,0.9c1.8,1.4,2.1,4.1,2.1,4.7  c0,0,2.5-2.1,4.7-0.7c2.2,1.4,2.9,3.2,2.8,5.3c-0.1,1.6-0.9,2.3-0.9,2.3s1.5-0.4,3.5,1c2,1.5,3.1,4.2,2.7,6.8  c-0.4,2.5-1.6,3.9-3.5,4.5c-1.8,0.6-4.7,1.5-4.7,1.5l1.5,10c0,0,3.4,1.5,4.9,2.1c-2,0.2-3.8,0.5-5.5,1L58.4,83.6z M55,70.9l2.5-0.7  l3.6-7.9l-6.7,6.1l-0.1,0l-8.8-1.9l7.1,5L55,70.9L55,70.9z"/>
<path class="st0" d="M111.7,83.6c-1.7-0.5-3.5-0.8-5.5-1c1.5-0.6,4.9-2.1,4.9-2.1l1.5-10c0,0-2.9-0.9-4.7-1.5  c-1.8-0.6-3-1.9-3.5-4.5c-0.4-2.5,0.7-5.3,2.7-6.8c2-1.5,3.5-1,3.5-1s-0.8-0.7-0.9-2.3c-0.2-2.2,0.5-3.9,2.8-5.3  c2.2-1.4,4.7,0.7,4.7,0.7c0-0.5,0.4-3.3,2.1-4.7c0.8-0.6,2.2-1.1,3-0.9l0.2,0c0.8,0.2,1.8,1.4,2.2,2.3c0.8,2.1-0.2,4.7-0.5,5.1  c0,0,3.2-0.6,4.4,1.8c1.2,2.3,0.9,4.2-0.3,6c-0.9,1.3-1.9,1.5-1.9,1.5s1.5,0.4,2.5,2.6c1,2.3,0.6,5.2-1.1,7.2  c-1.7,2-3.4,2.5-5.2,2.1c-1.9-0.4-4.8-1.1-4.8-1.1l-3.7,9.4c0,0,2.2,3,3.2,4.3c-1.8-0.8-3.6-1.5-5.3-1.9L111.7,83.6z M115.3,70.9  l2.5,0.6l7.1-5l-8.8,1.9l-0.1,0l-6.7-6.1l3.6,7.9L115.3,70.9L115.3,70.9z"/>
</svg>